<svg width="1920" height="2574" viewBox="0 0 1920 2574" fill="none" xmlns="http://www.w3.org/2000/svg">
<mask id="mask0_10_117" style="mask-type:alpha" maskUnits="userSpaceOnUse" x="0" y="0" width="1920" height="2574">
<path d="M0 0H1920V2574H0V0Z" fill="#002A58"/>
</mask>
<g mask="url(#mask0_10_117)">
<g filter="url(#filter0_f_10_117)">
<path fill-rule="evenodd" clip-rule="evenodd" d="M1248.08 1329.52C1164.11 1191.72 984.331 1148.07 846.523 1232.03C708.715 1316 665.067 1495.78 749.033 1633.59C832.998 1771.4 1012.78 1815.04 1150.59 1731.08C1288.4 1647.11 1332.04 1467.33 1248.08 1329.52ZM1174.04 1373.01C1114.35 1275.05 986.541 1244.02 888.573 1303.71C790.605 1363.4 759.576 1491.21 819.267 1589.17C878.958 1687.14 1006.77 1718.17 1104.73 1658.48C1202.7 1598.79 1233.73 1470.98 1174.04 1373.01Z" fill="#0F3EB9"/>
<path fill-rule="evenodd" clip-rule="evenodd" d="M840.543 302.996C815.926 262.594 763.218 249.798 722.817 274.414C682.415 299.031 669.618 351.739 694.235 392.141C718.851 432.542 771.559 445.339 811.961 420.722C852.363 396.106 865.159 343.398 840.543 302.996ZM818.836 315.746C801.336 287.025 763.866 277.928 735.144 295.428C706.423 312.928 697.326 350.398 714.826 379.119C732.326 407.841 769.796 416.938 798.517 399.438C827.239 381.938 836.336 344.468 818.836 315.746Z" fill="#E61D2F"/>
<path fill-rule="evenodd" clip-rule="evenodd" d="M970.537 2144.73C945.13 2103.04 890.73 2089.83 849.031 2115.24C807.333 2140.64 794.125 2195.04 819.532 2236.74C844.939 2278.44 899.339 2291.65 941.038 2266.24C982.737 2240.83 995.944 2186.43 970.537 2144.73ZM948.134 2157.89C930.072 2128.25 891.399 2118.86 861.755 2136.92C832.111 2154.98 822.722 2193.66 840.784 2223.3C858.846 2252.95 897.519 2262.33 927.163 2244.27C956.806 2226.21 966.195 2187.54 948.134 2157.89Z" fill="#1DB6E6"/>
<path fill-rule="evenodd" clip-rule="evenodd" d="M1834.96 225.489C1763.27 107.822 1609.76 70.5529 1492.09 142.247C1374.43 213.94 1337.16 367.447 1408.85 485.115C1480.55 602.782 1634.05 640.05 1751.72 568.357C1869.39 496.663 1906.66 343.156 1834.96 225.489ZM1771.74 262.623C1720.78 178.974 1611.65 152.479 1528 203.446C1444.35 254.413 1417.85 363.542 1468.82 447.191C1519.79 530.841 1628.92 557.335 1712.57 506.368C1796.21 455.401 1822.71 346.273 1771.74 262.623Z" fill="#1DB6E6"/>
<path fill-rule="evenodd" clip-rule="evenodd" d="M1893.61 2007.4C1844.01 1925.99 1737.81 1900.21 1656.4 1949.81C1574.99 1999.41 1549.21 2105.61 1598.81 2187.02C1648.41 2268.42 1754.61 2294.21 1836.02 2244.61C1917.42 2195.01 1943.21 2088.81 1893.61 2007.4ZM1849.87 2033.09C1814.61 1975.22 1739.11 1956.89 1681.24 1992.15C1623.37 2027.41 1605.04 2102.91 1640.3 2160.78C1675.56 2218.65 1751.06 2236.98 1808.93 2201.72C1866.8 2166.46 1885.13 2090.96 1849.87 2033.09Z" fill="#0092FF"/>
<path fill-rule="evenodd" clip-rule="evenodd" d="M663.326 1744.46C646.713 1717.2 611.143 1708.56 583.878 1725.18C556.613 1741.79 547.977 1777.36 564.59 1804.62C581.202 1831.89 616.772 1840.52 644.037 1823.91C671.303 1807.3 679.938 1771.73 663.326 1744.46ZM648.677 1753.07C636.867 1733.69 611.581 1727.55 592.198 1739.36C572.815 1751.17 566.676 1776.45 578.486 1795.84C590.295 1815.22 615.582 1821.36 634.965 1809.55C654.348 1797.74 660.487 1772.45 648.677 1753.07Z" fill="#0092FF"/>
<path fill-rule="evenodd" clip-rule="evenodd" d="M417.979 2053.47C392.572 2011.77 338.172 1998.57 296.473 2023.97C254.774 2049.38 241.567 2103.78 266.974 2145.48C292.38 2187.18 346.78 2200.39 388.479 2174.98C430.178 2149.57 443.386 2095.17 417.979 2053.47ZM395.575 2066.63C377.513 2036.99 338.84 2027.6 309.197 2045.66C279.553 2063.72 270.164 2102.4 288.225 2132.04C306.287 2161.68 344.96 2171.07 374.604 2153.01C404.248 2134.95 413.637 2096.28 395.575 2066.63Z" fill="white"/>
<path fill-rule="evenodd" clip-rule="evenodd" d="M632.13 1189.07C618.58 1166.83 589.567 1159.78 567.327 1173.33C545.088 1186.88 538.044 1215.9 551.594 1238.14C565.145 1260.37 594.158 1267.42 616.397 1253.87C638.637 1240.32 645.681 1211.3 632.13 1189.07ZM620.182 1196.08C610.549 1180.27 589.923 1175.27 574.113 1184.9C558.303 1194.53 553.296 1215.16 562.929 1230.97C572.562 1246.78 593.187 1251.79 608.997 1242.15C624.807 1232.52 629.815 1211.89 620.182 1196.08Z" fill="white"/>
<path d="M1447.9 1068.9C1469.22 1055.92 1497.02 1062.67 1510.01 1083.98C1522.99 1105.29 1516.24 1133.1 1494.93 1146.08C1473.62 1159.07 1445.81 1152.32 1432.83 1131.01C1419.84 1109.69 1426.59 1081.89 1447.9 1068.9Z" fill="#0038FF"/>
<path d="M150.234 1330.83C228.999 1282.84 331.754 1307.79 379.745 1386.56C427.735 1465.32 402.788 1568.08 324.024 1616.07C245.259 1664.06 142.504 1639.11 94.5128 1560.35C46.5221 1481.58 71.4693 1378.83 150.234 1330.83Z" fill="#0092FF"/>
<path d="M549.433 2306.98C567.966 2295.69 592.143 2301.56 603.435 2320.09C614.727 2338.63 608.857 2362.8 590.325 2374.09C571.792 2385.39 547.614 2379.52 536.322 2360.98C525.03 2342.45 530.9 2318.27 549.433 2306.98Z" fill="white"/>
<path d="M787.097 836.459C821.345 815.592 866.025 826.44 886.892 860.688C907.759 894.936 896.912 939.616 862.663 960.483C828.415 981.35 783.736 970.503 762.869 936.254C742.001 902.006 752.849 857.327 787.097 836.459Z" fill="white"/>
<path d="M1319.47 9.48004C1336.8 -1.08024 1359.41 4.40935 1369.97 21.7414C1380.53 39.0734 1375.05 61.6846 1357.71 72.2449C1340.38 82.8052 1317.77 77.3156 1307.21 59.9835C1296.65 42.6515 1302.14 20.0403 1319.47 9.48004Z" fill="white"/>
<path d="M227.37 1739.66C245.139 1728.84 268.321 1734.46 279.148 1752.23C289.975 1770 284.347 1793.19 266.577 1804.01C248.808 1814.84 225.626 1809.21 214.799 1791.44C203.972 1773.67 209.6 1750.49 227.37 1739.66Z" fill="#E61D2F"/>
<path d="M1659.06 775.033C1716.51 740.028 1791.46 758.224 1826.46 815.676C1861.47 873.128 1843.27 948.079 1785.82 983.084C1728.37 1018.09 1653.42 999.892 1618.41 942.44C1583.41 884.989 1601.6 810.038 1659.06 775.033Z" fill="white"/>
</g>
</g>
<defs>
<filter id="filter0_f_10_117" x="-103.898" y="-169.892" width="2196.74" height="2723.73" filterUnits="userSpaceOnUse" color-interpolation-filters="sRGB">
<feFlood flood-opacity="0" result="BackgroundImageFix"/>
<feBlend mode="normal" in="SourceGraphic" in2="BackgroundImageFix" result="shape"/>
<feGaussianBlur stdDeviation="87" result="effect1_foregroundBlur_10_117"/>
</filter>
</defs>
</svg>
