<svg width="1920" height="250" viewBox="0 0 1920 250" fill="none" xmlns="http://www.w3.org/2000/svg">
<mask id="mask0_3_50" style="mask-type:alpha" maskUnits="userSpaceOnUse" x="0" y="0" width="1920" height="250">
<rect width="1920" height="250" fill="#D9D9D9"/>
</mask>
<g mask="url(#mask0_3_50)">
<path d="M-40.1782 204.169C-21.5202 195.169 62.2015 39.6689 378.909 25.6689C695.616 11.6689 1432.85 222.169 1712.72 213.169C1936.61 205.969 2134.2 137.502 2205 104.169" stroke="white" stroke-width="6"/>
<path d="M-166 218.91C-147.338 209.932 -63.5984 54.8028 253.176 40.8362C569.951 26.8696 1307.34 236.867 1587.27 227.889C1811.21 220.706 2008.84 152.403 2079.66 119.149" stroke="white" stroke-width="6"/>
<path d="M-40.6566 211.062C-23.6644 205.14 52.5825 102.821 341.014 93.6091C629.445 84.397 1300.85 222.906 1555.74 216.984C1759.64 212.247 1939.58 167.195 2004.07 145.262" stroke="white" stroke-width="6"/>
</g>
</svg>
