<svg width="1988" height="1615" viewBox="0 0 1988 1615" fill="none" xmlns="http://www.w3.org/2000/svg">
<g clip-path="url(#clip0_135_122)">
<g filter="url(#filter0_f_135_122)">
<path fill-rule="evenodd" clip-rule="evenodd" d="M1333.92 490.403C1249.97 352.589 1070.19 308.93 932.373 392.887C794.56 476.843 750.9 656.623 834.857 794.436C918.814 932.25 1098.59 975.909 1236.41 891.953C1374.22 807.996 1417.88 628.216 1333.92 490.403ZM1259.88 533.888C1200.2 435.917 1072.39 404.879 974.418 464.564C876.447 524.249 845.409 652.055 905.094 750.026C964.779 847.998 1092.58 879.035 1190.56 819.35C1288.53 759.666 1319.56 631.86 1259.88 533.888Z" fill="#0F3EB9"/>
<path fill-rule="evenodd" clip-rule="evenodd" d="M1056.33 1305.6C1030.92 1263.9 976.526 1250.68 934.825 1276.09C893.125 1301.49 879.914 1355.89 905.318 1397.59C930.722 1439.29 985.121 1452.5 1026.82 1427.1C1068.52 1401.7 1081.73 1347.3 1056.33 1305.6ZM1033.92 1318.75C1015.86 1289.11 977.192 1279.72 947.547 1297.78C917.902 1315.84 908.511 1354.51 926.571 1384.16C944.631 1413.8 983.303 1423.19 1012.95 1405.13C1042.59 1387.07 1051.98 1348.4 1033.92 1318.75Z" fill="#1DB6E6"/>
<path fill-rule="evenodd" clip-rule="evenodd" d="M1979.41 1168.32C1929.81 1086.91 1823.61 1061.12 1742.2 1110.71C1660.79 1160.31 1635 1266.51 1684.6 1347.92C1734.19 1429.33 1840.39 1455.12 1921.8 1405.52C2003.21 1355.93 2029 1249.73 1979.41 1168.32ZM1935.67 1194.01C1900.41 1136.13 1824.91 1117.8 1767.04 1153.06C1709.17 1188.31 1690.83 1263.81 1726.09 1321.69C1761.35 1379.56 1836.84 1397.89 1894.72 1362.64C1952.59 1327.38 1970.93 1251.88 1935.67 1194.01Z" fill="#0092FF"/>
<path fill-rule="evenodd" clip-rule="evenodd" d="M749.143 905.306C732.532 878.039 696.963 869.401 669.697 886.012C642.43 902.623 633.792 938.192 650.403 965.459C667.014 992.725 702.583 1001.36 729.849 984.752C757.116 968.141 765.754 932.572 749.143 905.306ZM734.494 913.91C722.685 894.526 697.399 888.385 678.015 900.194C658.632 912.002 652.491 937.289 664.3 956.672C676.108 976.056 701.394 982.197 720.778 970.388C740.162 958.579 746.302 933.293 734.494 913.91Z" fill="#0092FF"/>
<path fill-rule="evenodd" clip-rule="evenodd" d="M503.776 1214.3C478.372 1172.6 423.973 1159.39 382.272 1184.79C340.572 1210.2 327.361 1264.6 352.765 1306.3C378.169 1348 432.569 1361.21 474.269 1335.8C515.97 1310.4 529.18 1256 503.776 1214.3ZM481.372 1227.46C463.312 1197.81 424.64 1188.42 394.995 1206.48C365.35 1224.54 355.958 1263.21 374.018 1292.86C392.078 1322.5 430.75 1331.89 460.395 1313.83C490.04 1295.77 499.432 1257.1 481.372 1227.46Z" fill="white"/>
<path fill-rule="evenodd" clip-rule="evenodd" d="M717.983 349.906C704.434 327.665 675.421 320.62 653.181 334.168C630.941 347.717 623.895 376.73 637.444 398.97C650.993 421.211 680.005 428.257 702.246 414.708C724.486 401.159 731.532 372.146 717.983 349.906ZM706.034 356.923C696.402 341.113 675.777 336.104 659.966 345.736C644.155 355.368 639.147 375.993 648.778 391.804C658.41 407.614 679.036 412.623 694.846 402.991C710.657 393.359 715.666 372.734 706.034 356.923Z" fill="white"/>
<path d="M1533.77 229.795C1555.08 216.811 1582.88 223.563 1595.87 244.877C1608.85 266.191 1602.1 293.995 1580.79 306.979C1559.47 319.963 1531.67 313.211 1518.68 291.897C1505.7 270.584 1512.45 242.78 1533.77 229.795Z" fill="#0038FF"/>
<path d="M236.077 491.644C314.845 443.658 417.599 468.612 465.585 547.38C513.57 626.147 488.617 728.901 409.849 776.887C331.081 824.873 228.327 799.919 180.342 721.151C132.356 642.383 157.31 539.63 236.077 491.644Z" fill="#0092FF"/>
<path d="M635.214 1467.82C653.748 1456.53 677.925 1462.4 689.216 1480.93C700.507 1499.46 694.635 1523.64 676.102 1534.93C657.568 1546.22 633.391 1540.35 622.1 1521.82C610.809 1503.28 616.681 1479.11 635.214 1467.82Z" fill="white"/>
<path d="M313.187 900.477C330.957 889.652 354.139 895.281 364.965 913.052C375.79 930.822 370.161 954.003 352.391 964.829C334.62 975.655 311.439 970.025 300.613 952.255C289.787 934.485 295.417 911.303 313.187 900.477Z" fill="#E61D2F"/>
</g>
</g>
<defs>
<filter id="filter0_f_135_122" x="-386.405" y="-635.042" width="2760.18" height="2884.85" filterUnits="userSpaceOnUse" color-interpolation-filters="sRGB">
<feFlood flood-opacity="0" result="BackgroundImageFix"/>
<feBlend mode="normal" in="SourceGraphic" in2="BackgroundImageFix" result="shape"/>
<feGaussianBlur stdDeviation="87" result="effect1_foregroundBlur_135_122"/>
</filter>
<clipPath id="clip0_135_122">
<rect width="1987.37" height="1613.83" fill="white" transform="translate(0 0.46344)"/>
</clipPath>
</defs>
</svg>
