<svg width="1463" height="1425" viewBox="0 0 1463 1425" fill="none" xmlns="http://www.w3.org/2000/svg">
<g filter="url(#filter0_f_135_123)">
<path d="M330.097 836.459C364.345 815.592 409.025 826.44 429.892 860.688C450.759 894.936 439.912 939.616 405.663 960.483C371.415 981.35 326.736 970.502 305.869 936.254C285.001 902.006 295.849 857.327 330.097 836.459Z" fill="white"/>
<path d="M862.471 9.47992C879.803 -1.08036 902.414 4.40923 912.974 21.7413C923.535 39.0733 918.045 61.6845 900.713 72.2448C883.381 82.805 860.77 77.3155 850.21 59.9834C839.649 42.6514 845.139 20.0402 862.471 9.47992Z" fill="white"/>
<path fill-rule="evenodd" clip-rule="evenodd" d="M1377.96 225.489C1306.27 107.822 1152.76 70.5528 1035.09 142.246C917.426 213.94 880.158 367.447 951.851 485.114C1023.54 602.782 1177.05 640.05 1294.72 568.357C1412.39 496.663 1449.66 343.156 1377.96 225.489ZM1314.74 262.623C1263.78 178.974 1154.65 152.479 1071 203.446C987.348 254.413 960.853 363.542 1011.82 447.191C1062.79 530.841 1171.92 557.335 1255.57 506.368C1339.21 455.401 1365.71 346.273 1314.74 262.623Z" fill="#1DB6E6"/>
<path fill-rule="evenodd" clip-rule="evenodd" d="M383.543 302.996C358.926 262.594 306.218 249.798 265.817 274.414C225.415 299.031 212.618 351.739 237.235 392.14C261.851 432.542 314.559 445.339 354.961 420.722C395.363 396.106 408.159 343.398 383.543 302.996ZM361.836 315.746C344.336 287.025 306.866 277.928 278.144 295.428C249.423 312.928 240.326 350.398 257.826 379.119C275.326 407.841 312.796 416.938 341.517 399.438C370.239 381.938 379.336 344.468 361.836 315.746Z" fill="#E61D2F"/>
<path d="M1202.06 775.032C1259.51 740.027 1334.46 758.224 1369.46 815.676C1404.47 873.128 1386.27 948.079 1328.82 983.084C1271.37 1018.09 1196.42 999.892 1161.41 942.44C1126.41 884.988 1144.6 810.037 1202.06 775.032Z" fill="white"/>
</g>
<defs>
<filter id="filter0_f_135_123" x="50.7131" y="-169.892" width="1537.72" height="1344.78" filterUnits="userSpaceOnUse" color-interpolation-filters="sRGB">
<feFlood flood-opacity="0" result="BackgroundImageFix"/>
<feBlend mode="normal" in="SourceGraphic" in2="BackgroundImageFix" result="shape"/>
<feGaussianBlur stdDeviation="87" result="effect1_foregroundBlur_135_123"/>
</filter>
</defs>
</svg>
