<svg width="320" height="87" viewBox="0 0 320 87" fill="none" xmlns="http://www.w3.org/2000/svg">
<mask id="mask0_125_92" style="mask-type:alpha" maskUnits="userSpaceOnUse" x="0" y="0" width="320" height="87">
<rect width="320" height="87" fill="#D9D9D9"/>
</mask>
<g mask="url(#mask0_125_92)">
<path d="M-6.69635 71.0508C-3.58669 67.9188 10.3669 13.8048 63.1515 8.93279C115.936 4.06079 238.808 77.3148 285.453 74.1828C322.769 71.6772 355.699 47.8508 367.5 36.2508" stroke="white" stroke-width="2"/>
<path d="M-27.6667 76.1808C-24.5564 73.0563 -10.5998 19.0714 42.1961 14.211C94.9919 9.35067 217.89 82.4299 264.545 79.3054C301.869 76.8057 334.806 53.0362 346.609 41.4639" stroke="white" stroke-width="2"/>
<path d="M-6.77612 73.4497C-3.94409 71.3888 8.76372 35.7817 56.8356 32.576C104.907 29.3702 216.809 77.5714 259.289 75.5105C293.274 73.8618 323.264 58.184 334.011 50.5512" stroke="white" stroke-width="2"/>
</g>
</svg>
