<svg width="1920" height="250" viewBox="0 0 1920 250" fill="none" xmlns="http://www.w3.org/2000/svg">
<mask id="mask0_23_218" style="mask-type:alpha" maskUnits="userSpaceOnUse" x="-1" y="0" width="1921" height="251">
<rect x="1920" y="250" width="1920" height="250" transform="rotate(180 1920 250)" fill="#D9D9D9"/>
</mask>
<g mask="url(#mask0_23_218)">
<path d="M1960.18 45.8312C1941.52 54.8312 1857.8 210.331 1541.09 224.331C1224.38 238.331 487.154 27.8313 207.284 36.8314C-16.6122 44.0314 -214.195 112.498 -285 145.831" stroke="white" stroke-width="6"/>
<path d="M2086 31.0898C2067.34 40.0683 1983.6 195.197 1666.82 209.164C1350.05 223.131 612.661 13.1328 332.732 22.1114C108.788 29.2942 -88.8371 97.5975 -159.657 130.851" stroke="white" stroke-width="6"/>
<path d="M1960.66 38.9379C1943.66 44.8599 1867.42 147.179 1578.99 156.391C1290.55 165.603 619.146 27.094 364.264 33.016C160.358 37.7536 -19.5849 82.8048 -84.068 104.738" stroke="white" stroke-width="6"/>
</g>
</svg>
